<svg xmlns="http://www.w3.org/2000/svg" viewBox="0 0 120 120" width="120" height="120">
  <defs>
    <linearGradient id="gGrad1" x1="0%" y1="0%" x2="100%" y2="100%">
      <stop offset="0%" stop-color="#FF1F4B" />
      <stop offset="35%" stop-color="#8B5CF6" />
      <stop offset="70%" stop-color="#0EA5E9" />
      <stop offset="100%" stop-color="#10F080" />
    </linearGradient>
    <filter id="glow" x="-20%" y="-20%" width="140%" height="140%">
      <feDropShadow dx="0" dy="4" stdDeviation="6" flood-color="#0EA5E9" flood-opacity="0.6"/>
    </filter>
  </defs>
  <rect width="120" height="120" rx="28" fill="#07090E" />
  <rect x="2" y="2" width="116" height="116" rx="26" fill="none" stroke="url(#gGrad1)" stroke-width="2.5" opacity="0.8" />
  <path d="M78 36 C72 28 62 25 50 25 C34 25 22 37 22 56 C22 75 34 87 52 87 C68 87 78 78 80 64 L50 64 L50 51 L95 51 C96 55 96 61 96 66 C96 85 81 100 52 100 C25 100 8 82 8 56 C8 30 25 12 51 12 C67 12 80 18 89 28 Z" fill="url(#gGrad1)" filter="url(#glow)" transform="translate(6, 4) scale(0.9)" />
</svg>
